<?xml version="1.0" encoding="UTF-8" standalone="no"?>
<!-- Created with Inkscape (http://www.inkscape.org/) -->

<svg
   xmlns:dc="http://purl.org/dc/elements/1.1/"
   xmlns:cc="http://creativecommons.org/ns#"
   xmlns:rdf="http://www.w3.org/1999/02/22-rdf-syntax-ns#"
   xmlns:svg="http://www.w3.org/2000/svg"
   xmlns="http://www.w3.org/2000/svg"
   xmlns:sodipodi="http://sodipodi.sourceforge.net/DTD/sodipodi-0.dtd"
   xmlns:inkscape="http://www.inkscape.org/namespaces/inkscape"
   width="210mm"
   height="297mm"
   viewBox="0 0 210 297"
   version="1.1"
   id="svg8"
   inkscape:version="0.92.5 (0.92.5+68)"
   sodipodi:docname="logo.svg"
   inkscape:export-filename="/home/scouttman/my_stuff/GPS/LC79D/logo.png"
   inkscape:export-xdpi="96"
   inkscape:export-ydpi="96">
  <defs
     id="defs2">
    <inkscape:path-effect
       effect="bspline"
       id="path-effect1157"
       is_visible="true"
       weight="33.333333"
       steps="2"
       helper_size="0"
       apply_no_weight="true"
       apply_with_weight="true"
       only_selected="false" />
    <inkscape:path-effect
       effect="bspline"
       id="path-effect1153"
       is_visible="true"
       weight="33.333333"
       steps="2"
       helper_size="0"
       apply_no_weight="true"
       apply_with_weight="true"
       only_selected="false" />
    <inkscape:path-effect
       effect="bspline"
       id="path-effect1149"
       is_visible="true"
       weight="33.333333"
       steps="2"
       helper_size="0"
       apply_no_weight="true"
       apply_with_weight="true"
       only_selected="false" />
  </defs>
  <sodipodi:namedview
     id="base"
     pagecolor="#ffffff"
     bordercolor="#666666"
     borderopacity="1.0"
     inkscape:pageopacity="0.0"
     inkscape:pageshadow="2"
     inkscape:zoom="3.959798"
     inkscape:cx="197.37464"
     inkscape:cy="806.48104"
     inkscape:document-units="mm"
     inkscape:current-layer="layer1"
     showgrid="false"
     inkscape:window-width="3775"
     inkscape:window-height="2136"
     inkscape:window-x="65"
     inkscape:window-y="24"
     inkscape:window-maximized="1" />
  <metadata
     id="metadata5">
    <rdf:RDF>
      <cc:Work
         rdf:about="">
        <dc:format>image/svg+xml</dc:format>
        <dc:type
           rdf:resource="http://purl.org/dc/dcmitype/StillImage" />
        <dc:title></dc:title>
      </cc:Work>
    </rdf:RDF>
  </metadata>
  <g
     inkscape:label="Layer 1"
     inkscape:groupmode="layer"
     id="layer1">
    <path
       style="fill:none;stroke:#000000;stroke-width:0.80000001;stroke-linecap:butt;stroke-linejoin:miter;stroke-miterlimit:4;stroke-dasharray:none;stroke-opacity:1"
       d="m 51.94941,85.978823 c 2.930908,3.629983 4.684602,7.982015 6.974805,11.982883 0.670288,1.170961 2.11725,3.238094 2.373392,4.146194"
       id="path943"
       inkscape:connector-curvature="0"
       inkscape:export-xdpi="96"
       inkscape:export-ydpi="96" />
    <path
       style="fill:none;stroke:#000000;stroke-width:0.80000001;stroke-linecap:butt;stroke-linejoin:miter;stroke-miterlimit:4;stroke-dasharray:none;stroke-opacity:1"
       d="m 51.94941,85.978823 c 3.023192,-1.725025 7.590452,-4.199194 10.450381,-6.02057 4.402448,-2.753565 7.438425,-4.243041 8.317393,-4.568621"
       id="path949"
       inkscape:connector-curvature="0"
       sodipodi:nodetypes="ccc"
       inkscape:export-xdpi="96"
       inkscape:export-ydpi="96" />
    <path
       style="fill:none;stroke:#000000;stroke-width:0.80000001;stroke-linecap:butt;stroke-linejoin:miter;stroke-miterlimit:4;stroke-dasharray:none;stroke-opacity:1"
       d="m 70.717184,75.389632 c 0.225282,-0.177813 0.09067,0.0062 0,0"
       id="path951"
       inkscape:connector-curvature="0"
       inkscape:export-xdpi="96"
       inkscape:export-ydpi="96" />
    <path
       style="fill:none;stroke:#000000;stroke-width:0.80000001;stroke-linecap:butt;stroke-linejoin:miter;stroke-miterlimit:4;stroke-dasharray:none;stroke-opacity:1"
       d="m 70.717184,75.389632 c 1.416422,1.669078 3.928152,5.41504 4.696187,7.128018 1.663362,2.95406 3.444227,7.036696 5.530849,9.460373"
       id="path959"
       inkscape:connector-curvature="0"
       sodipodi:nodetypes="ccc"
       inkscape:export-xdpi="96"
       inkscape:export-ydpi="96" />
    <path
       style="fill:none;stroke:#000000;stroke-width:0.80000001;stroke-linecap:butt;stroke-linejoin:miter;stroke-miterlimit:4;stroke-dasharray:none;stroke-opacity:1"
       d="m 61.297606,102.1079 c -0.07739,-0.0455 -0.15182,-0.0965 -0.232157,-0.13657 -0.08033,-0.0401 0.144132,0.15425 0.232157,0.13657 0.444665,-0.0893 1.089814,-0.4557 1.503712,-0.66828 1.293631,-0.66443 2.488332,-1.55248 3.814864,-2.145235 3.127404,-1.397476 5.993198,-3.392169 8.975866,-5.099526 1.139959,-0.652543 2.393784,-1.02381 3.512725,-1.664322 0.407615,-0.233329 2.424571,-0.992042 1.839447,-0.552514"
       id="path967"
       inkscape:connector-curvature="0"
       inkscape:export-xdpi="96"
       inkscape:export-ydpi="96" />
    <path
       style="fill:none;stroke:#000000;stroke-width:0.80000001;stroke-linecap:butt;stroke-linejoin:miter;stroke-miterlimit:4;stroke-dasharray:none;stroke-opacity:1"
       d="m 75.928085,83.685828 c 0.946425,-0.510383 2.658954,-1.586144 3.089801,-1.999656"
       id="path971"
       inkscape:connector-curvature="0"
       inkscape:export-xdpi="96"
       inkscape:export-ydpi="96" />
    <path
       style="fill:none;stroke:#000000;stroke-width:0.80000001;stroke-linecap:butt;stroke-linejoin:miter;stroke-miterlimit:4;stroke-dasharray:none;stroke-opacity:1"
       d="m 75.557278,75.506166 c 2.235887,2.814892 4.697677,10.527037 6.639265,12.136458"
       id="path973"
       inkscape:connector-curvature="0"
       inkscape:export-xdpi="96"
       inkscape:export-ydpi="96" />
    <path
       style="fill:none;stroke:#000000;stroke-width:0.80000001;stroke-linecap:butt;stroke-linejoin:miter;stroke-miterlimit:4;stroke-dasharray:none;stroke-opacity:1"
       d="m 82.196542,87.642622 c 0.921189,-0.523511 1.834737,-1.064678 2.704678,-1.663709 2.195898,-1.512114 4.329896,-3.146662 6.531329,-4.662587 3.16005,-2.176037 7.03818,-3.451416 10.223031,-5.274507"
       id="path977"
       inkscape:connector-curvature="0"
       inkscape:export-xdpi="96"
       inkscape:export-ydpi="96" />
    <path
       style="fill:none;stroke:#000000;stroke-width:0.80000001;stroke-linecap:butt;stroke-linejoin:miter;stroke-miterlimit:4;stroke-dasharray:none;stroke-opacity:1"
       d="m 96.030913,63.055113 c 1.65245,4.19502 3.158682,9.703817 5.624667,12.986706"
       id="path979"
       inkscape:connector-curvature="0"
       inkscape:export-xdpi="96"
       inkscape:export-ydpi="96" />
    <path
       style="fill:none;stroke:#000000;stroke-width:0.80000001;stroke-linecap:butt;stroke-linejoin:miter;stroke-miterlimit:4;stroke-dasharray:none;stroke-opacity:1"
       d="m 75.557277,75.506164 c 1.958427,-0.51391 4.304912,-2.537493 5.910251,-3.999103 3.043306,-2.770821 6.587717,-4.232921 10.09385,-6.239924 1.133317,-0.64874 2.376956,-1.168159 3.475324,-1.796893 0.293609,-0.16807 1.670343,-0.802167 0.994211,-0.415131"
       id="path981"
       inkscape:connector-curvature="0"
       inkscape:export-xdpi="96"
       inkscape:export-ydpi="96" />
    <path
       style="fill:none;stroke:#000000;stroke-width:0.5;stroke-linecap:butt;stroke-linejoin:miter;stroke-miterlimit:4;stroke-dasharray:none;stroke-opacity:1"
       d="m 77.573122,78.086264 c -0.675891,0.662042 1.544769,-0.541608 1.843448,-0.747279 2.545305,-1.752716 5.042632,-3.981209 7.873469,-5.276882 2.210789,-1.011875 4.512789,-1.85288 6.756506,-2.789742 1.255673,-0.524303 2.4301,-1.847253 3.603499,-2.178221"
       id="path983"
       inkscape:connector-curvature="0"
       inkscape:export-xdpi="96"
       inkscape:export-ydpi="96" />
    <path
       style="fill:none;stroke:#000000;stroke-width:0.5;stroke-linecap:butt;stroke-linejoin:miter;stroke-miterlimit:4;stroke-dasharray:none;stroke-opacity:1"
       d="m 79.949415,84.026789 c 4.308453,-3.831452 6.711552,-4.91542 11.840025,-7.534165 1.414784,-0.515953 6.806999,-3.359276 8.043204,-3.707964"
       id="path985"
       inkscape:connector-curvature="0"
       sodipodi:nodetypes="ccc"
       inkscape:export-xdpi="96"
       inkscape:export-ydpi="96" />
    <path
       style="fill:none;stroke:#000000;stroke-width:0.5;stroke-linecap:butt;stroke-linejoin:miter;stroke-miterlimit:4;stroke-dasharray:none;stroke-opacity:1"
       d="m 85.874273,68.445596 c 0.327332,0.852079 0.61614,1.716825 0.996436,2.547711 0.998622,2.181831 1.859377,4.727714 3.030095,6.7729 0.460638,0.804711 1.479104,2.542655 1.730958,3.435551"
       id="path991"
       inkscape:connector-curvature="0"
       sodipodi:nodetypes="cssc"
       inkscape:export-xdpi="96"
       inkscape:export-ydpi="96" />
    <path
       style="fill:none;stroke:#000000;stroke-width:0.5;stroke-linecap:butt;stroke-linejoin:miter;stroke-miterlimit:4;stroke-dasharray:none;stroke-opacity:1"
       d="m 80.523515,72.547876 c 2.159464,2.400359 4.413998,10.936705 6.09229,12.327873"
       id="path993"
       inkscape:connector-curvature="0"
       sodipodi:nodetypes="cc"
       inkscape:export-xdpi="96"
       inkscape:export-ydpi="96" />
    <path
       style="fill:none;stroke:#000000;stroke-width:0.5;stroke-linecap:butt;stroke-linejoin:miter;stroke-miterlimit:4;stroke-dasharray:none;stroke-opacity:1"
       d="m 90.782526,65.520497 c 1.869537,2.842651 4.041785,11.185383 5.524696,13.164288"
       id="path997"
       inkscape:connector-curvature="0"
       sodipodi:nodetypes="cc"
       inkscape:export-xdpi="96"
       inkscape:export-ydpi="96" />
    <path
       style="fill:none;stroke:#000000;stroke-width:0.80000001;stroke-linecap:butt;stroke-linejoin:miter;stroke-miterlimit:4;stroke-dasharray:none;stroke-opacity:1"
       d="m 31.554455,101.171 c 1.005464,3.07431 7.553376,10.61631 7.527502,12.61771"
       id="path999"
       inkscape:connector-curvature="0"
       sodipodi:nodetypes="cc"
       inkscape:export-xdpi="96"
       inkscape:export-ydpi="96" />
    <path
       style="fill:none;stroke:#000000;stroke-width:0.80000001;stroke-linecap:butt;stroke-linejoin:miter;stroke-miterlimit:4;stroke-dasharray:none;stroke-opacity:1"
       d="m 39.081957,113.78871 c 2.928456,-2.68552 5.993789,-5.28303 9.417322,-7.24275 1.159227,-0.66357 2.486178,-1.06289 3.582299,-1.83525 1.610918,-1.1351 3.70842,-3.47981 5.797671,-3.54796"
       id="path1001"
       inkscape:connector-curvature="0"
       sodipodi:nodetypes="cssc"
       inkscape:export-xdpi="96"
       inkscape:export-ydpi="96" />
    <path
       style="fill:none;stroke:#000000;stroke-width:0.80000001;stroke-linecap:butt;stroke-linejoin:miter;stroke-miterlimit:4;stroke-dasharray:none;stroke-opacity:1"
       d="m 51.254925,89.590702 c 0.421314,0.838472 0.511316,1.061221 0.856176,1.966647 0.508063,1.333908 4.972481,8.822241 5.798496,9.706151"
       id="path1009"
       inkscape:connector-curvature="0"
       sodipodi:nodetypes="csc"
       inkscape:export-xdpi="96"
       inkscape:export-ydpi="96" />
    <path
       style="fill:none;stroke:#000000;stroke-width:0.80000001;stroke-linecap:butt;stroke-linejoin:miter;stroke-miterlimit:4;stroke-dasharray:none;stroke-opacity:1"
       d="m 51.3922,89.603548 c -1.230083,0.230405 -4.834535,2.792454 -6.247255,3.787895 -3.05804,2.154792 -6.320819,3.873976 -9.367742,6.051468 -0.90079,0.643759 -3.311494,1.366519 -4.253876,1.905959"
       id="path1011"
       inkscape:connector-curvature="0"
       sodipodi:nodetypes="cscc"
       inkscape:export-xdpi="96"
       inkscape:export-ydpi="96" />
    <path
       style="fill:none;stroke:#000000;stroke-width:0.5;stroke-linecap:butt;stroke-linejoin:miter;stroke-miterlimit:4;stroke-dasharray:none;stroke-opacity:1"
       d="m 33.792626,105.18746 c 1.013052,-0.11909 1.864382,-0.77543 2.68698,-1.32274 2.601722,-1.73105 5.395718,-3.22227 7.926819,-5.060664 2.659253,-1.931471 5.692262,-3.894184 8.524802,-5.515605"
       id="path1013"
       inkscape:connector-curvature="0"
       sodipodi:nodetypes="cssc"
       inkscape:export-xdpi="96"
       inkscape:export-ydpi="96" />
    <path
       style="fill:none;stroke:#000000;stroke-width:0.5;stroke-linecap:butt;stroke-linejoin:miter;stroke-miterlimit:4;stroke-dasharray:none;stroke-opacity:1"
       d="m 37.095782,109.91245 c 5.69677,-3.87892 12.408895,-8.763 18.211937,-12.229847"
       id="path1015"
       inkscape:connector-curvature="0"
       sodipodi:nodetypes="cc"
       inkscape:export-xdpi="96"
       inkscape:export-ydpi="96" />
    <path
       style="fill:none;stroke:#000000;stroke-width:0.5;stroke-linecap:butt;stroke-linejoin:miter;stroke-miterlimit:4;stroke-dasharray:none;stroke-opacity:1"
       d="m 41.804054,95.64842 c 0.09278,1.700534 2.770689,4.79366 3.761916,6.89136 0.5815,1.23061 1.637671,3.68598 2.253376,4.30925"
       id="path1019"
       inkscape:connector-curvature="0"
       inkscape:export-xdpi="96"
       inkscape:export-ydpi="96" />
    <path
       style="fill:none;stroke:#000000;stroke-width:0.5;stroke-linecap:butt;stroke-linejoin:miter;stroke-miterlimit:4;stroke-dasharray:none;stroke-opacity:1"
       d="m 35.765148,99.451272 c 0.64753,0.803818 1.282489,1.830578 1.949024,2.629988 1.386249,1.66261 2.429327,3.28549 3.514383,5.18102 0.261859,0.45746 1.000258,2.35623 1.692876,3.17313"
       id="path1021"
       inkscape:connector-curvature="0"
       sodipodi:nodetypes="cssc"
       inkscape:export-xdpi="96"
       inkscape:export-ydpi="96" />
    <path
       style="fill:none;stroke:#000000;stroke-width:0.5;stroke-linecap:butt;stroke-linejoin:miter;stroke-miterlimit:4;stroke-dasharray:none;stroke-opacity:1"
       d="m 45.984554,92.781618 c 0.700815,1.003535 1.23509,2.317384 1.880955,3.445678 0.977969,1.708462 2.427044,3.771728 3.083611,5.599894 0.134798,0.37534 1.493087,3.49603 1.176327,2.4277"
       id="path1025"
       inkscape:connector-curvature="0"
       inkscape:export-xdpi="96"
       inkscape:export-ydpi="96" />
    <path
       style="fill:none;stroke:#000000;stroke-width:0.80000001;stroke-linecap:butt;stroke-linejoin:miter;stroke-miterlimit:4;stroke-dasharray:none;stroke-opacity:1"
       d="m 56.637805,93.765715 c -0.877642,0.62221 -1.754308,1.178348 -2.497314,1.891469"
       id="path1029"
       inkscape:connector-curvature="0"
       inkscape:export-xdpi="96"
       inkscape:export-ydpi="96" />
    <path
       style="fill:none;stroke:#000000;stroke-width:1.1;stroke-linecap:butt;stroke-linejoin:miter;stroke-miterlimit:4;stroke-dasharray:none;stroke-opacity:1"
       d="m 68.186413,103.42061 c 4.68986,2.85043 11.209419,-0.92461 10.633585,-6.288769"
       id="path1092"
       inkscape:connector-curvature="0"
       sodipodi:nodetypes="cc"
       inkscape:export-xdpi="96"
       inkscape:export-ydpi="96" />
    <path
       style="fill:none;stroke:#000000;stroke-width:1.1;stroke-linecap:butt;stroke-linejoin:miter;stroke-miterlimit:4;stroke-dasharray:none;stroke-opacity:1"
       d="m 66.617087,109.61366 c 7.575786,5.76108 19.504678,0.0266 19.552067,-10.547061"
       id="path1092-1"
       inkscape:connector-curvature="0"
       sodipodi:nodetypes="cc"
       inkscape:export-xdpi="96"
       inkscape:export-ydpi="96" />
    <path
       style="fill:none;stroke:#000000;stroke-width:1.1;stroke-linecap:butt;stroke-linejoin:miter;stroke-miterlimit:4;stroke-dasharray:none;stroke-opacity:1"
       d="m 67.837284,119.24068 c 8.459232,6.83368 27.211623,-0.76649 25.077599,-13.67152"
       id="path1092-1-2"
       inkscape:connector-curvature="0"
       sodipodi:nodetypes="cc"
       inkscape:export-xdpi="96"
       inkscape:export-ydpi="96" />
    <path
       style="fill:none;stroke:#000000;stroke-width:0.26458332px;stroke-linecap:butt;stroke-linejoin:miter;stroke-opacity:1"
       d="m 55.444381,68.324404 c -0.100178,-0.01541 -0.202549,-0.03116 -0.308409,-0.0048 -0.105861,0.0264 -0.216106,0.09727 -0.295277,0.163714 -0.07917,0.06644 -0.12642,0.129437 -0.181491,0.200337 -0.05507,0.0709 -0.118067,0.149645 -0.161744,0.212506 -0.04368,0.06286 -0.0673,0.110108 -0.09464,0.157416 -0.02734,0.04731 -0.05884,0.09456 -0.08302,0.145691 -0.02419,0.05113 -0.03994,0.106261 -0.07541,0.236198 -0.03546,0.129937 -0.09058,0.334673 -0.126328,0.535619 -0.03574,0.200946 -0.05149,0.397806 -0.06333,0.555311 -0.01183,0.157505 -0.01971,0.275625 0.02717,0.461406 0.04688,0.185781 0.149247,0.437766 0.216981,0.57257 0.06773,0.134804 0.09923,0.150554 0.126574,0.166244 0.02734,0.01569 0.05096,0.03144 0.07954,0.03911 0.02858,0.0077 0.06007,0.0077 0.111263,0.0077 0.05119,0 0.122056,0 0.27961,-0.111496 0.157553,-0.111495 0.401662,-0.331981 0.554846,-0.489745 0.153183,-0.157763 0.21618,-0.252258 0.255175,-0.319261 0.03899,-0.067 0.05474,-0.106374 0.07087,-0.137801 0.01613,-0.03143 0.03188,-0.05505 0.03874,-0.08241 0.0069,-0.02736 0.0069,-0.05885 0.01159,-0.08274 0.0047,-0.02389 0.01261,-0.03964 0.01575,-0.05512 0.0031,-0.01548 0.0031,-0.03123 0.0079,-0.04725 0.0047,-0.01602 0.01261,-0.03176 0.02099,-0.07861 0.0084,-0.04685 0.02379,-0.166296 0.01991,-0.08874 -0.0039,0.07756 -0.02459,0.334494 -0.0039,0.690456 0.02069,0.355961 0.08126,0.793574 0.142752,1.237852"
       id="path1147"
       inkscape:connector-curvature="0"
       inkscape:path-effect="#path-effect1149"
       inkscape:original-d="m 55.444381,68.324404 c -0.09972,-0.01839 -0.202091,-0.03414 -0.307104,-0.04725 -0.107598,0.06822 -0.217842,0.139094 -0.330729,0.212611 -0.0446,0.06035 -0.09185,0.123346 -0.141743,0.188987 -0.06035,0.0761 -0.123346,0.154845 -0.188986,0.236236 -0.02098,0.0446 -0.0446,0.09185 -0.07087,0.141742 -0.02885,0.0446 -0.06035,0.09185 -0.09449,0.14174 -0.0131,0.05247 -0.02885,0.107598 -0.04725,0.165365 -0.05248,0.202091 -0.107598,0.406828 -0.165364,0.614212 -0.0131,0.194217 -0.02885,0.391077 -0.04725,0.590587 -0.0052,0.115472 -0.0131,0.23359 -0.02363,0.354353 0.105013,0.249338 0.207383,0.501322 0.307105,0.755952 0.03414,0.0131 0.06564,0.02885 0.0945,0.04725 0.02627,0.0131 0.04989,0.02885 0.07087,0.04725 0.03415,-0.0026 0.06564,-0.0026 0.0945,0 0.07352,-0.0026 0.144386,-0.0026 0.212611,0 0.246756,-0.223131 0.490866,-0.443616 0.732327,-0.661458 0.06564,-0.09714 0.128641,-0.191632 0.18899,-0.283483 0.01839,-0.04202 0.03414,-0.08139 0.04725,-0.118115 0.01839,-0.02627 0.03414,-0.0499 0.04725,-0.07087 0.0026,-0.03415 0.0026,-0.06564 0,-0.09449 0.01053,-0.01839 0.01839,-0.03415 0.02363,-0.04725 0.0026,-0.01839 0.0026,-0.03414 0,-0.04725 0.01053,-0.01839 0.01839,-0.03414 0.02363,-0.04725 0.0108,-0.08107 0.02621,-0.200519 0.0385,-0.298337 -0.02004,0.252919 -0.04075,0.509855 -0.06213,0.770806 0.06278,0.450894 0.184478,1.332835 0.184478,1.332835"
       transform="matrix(2.1373391,-1.0091081,1.0567588,2.0409635,-129.6397,3.1693682)"
       sodipodi:nodetypes="ccccccccccccccccccccccccccc"
       inkscape:export-xdpi="96"
       inkscape:export-ydpi="96" />
    <path
       style="fill:none;stroke:#000000;stroke-width:0.26458332px;stroke-linecap:butt;stroke-linejoin:miter;stroke-opacity:1"
       d="m 57.216152,69.174849 c 0.02341,0.26534 0.04704,0.533072 0.06662,0.706491 0.01959,0.173419 0.03534,0.252165 0.04342,0.326665 0.0081,0.0745 0.0081,0.145374 0.01575,0.220488 0.0077,0.07511 0.02342,0.153857 0.04319,0.307255 0.01977,0.153397 0.04339,0.381756 0.05532,0.527285 0.01193,0.14553 0.01193,0.208526 0.02362,0.350422 0.01169,0.141896 0.03531,0.362382 0.04725,0.515779 0.01194,0.153396 0.01194,0.240019 0.01564,0.299467 0.0037,0.05945 0.01158,0.09094 0.01575,0.09055 0.0042,-3.88e-4 0.0042,-0.03189 -0.0039,-0.09067 -0.0081,-0.05878 -0.02382,-0.145403 -0.08154,-0.611087 -0.05773,-0.465684 -0.166381,-1.385041 -0.221338,-2.030405 -0.05496,-0.645365 -0.06672,-1.112469 0.0877,-1.35439 0.154421,-0.241921 0.458015,-0.221746 0.664804,-0.212278 0.20679,0.0095 0.332782,0.0095 0.425688,0.07193 0.09291,0.06247 0.155902,0.18846 0.195266,0.270987 0.03936,0.08253 0.05511,0.121898 0.06326,0.160635 0.0081,0.03874 0.0081,0.07811 0.012,0.153014 0.0039,0.07491 0.01173,0.18515 0.01212,0.259651 3.93e-4,0.0745 -0.0075,0.113876 -0.01173,0.15739 -0.0042,0.04351 -0.0042,0.09076 -0.01148,0.1338 -0.0072,0.04304 -0.02298,0.08241 -0.03519,0.125809 -0.0122,0.0434 -0.02008,0.09066 -0.141213,0.260013 -0.121134,0.169358 -0.35737,0.460715 -0.526248,0.630725 -0.168878,0.170011 -0.271249,0.21726 -0.338453,0.241619 -0.0672,0.02436 -0.0987,0.02436 -0.122054,0.0275 -0.02335,0.0031 -0.03911,0.01102 -0.06054,-2.05e-4 -0.02144,-0.01123 -0.04506,-0.04272 -0.06837,-0.0738"
       id="path1151"
       inkscape:connector-curvature="0"
       inkscape:path-effect="#path-effect1153"
       inkscape:original-d="m 57.216152,69.174849 c 0.02627,0.265088 0.04989,0.53282 0.07087,0.803201 0.01839,0.0761 0.03415,0.154844 0.04725,0.236235 0.0026,0.06822 0.0026,0.139094 0,0.212612 0.01839,0.0761 0.03414,0.154844 0.04725,0.236233 0.02627,0.225716 0.04989,0.454075 0.07087,0.685083 0.0026,0.06035 0.0026,0.123346 0,0.188989 0.02627,0.217839 0.04989,0.438325 0.07087,0.661458 0.0026,0.08397 0.0026,0.170593 0,0.259858 0.01053,0.02885 0.01839,0.06035 0.02363,0.09449 0.0026,-0.03414 0.0026,-0.06564 0,-0.09449 -0.0131,-0.08926 -0.02885,-0.175884 -0.04725,-0.259858 -0.09993,-0.846861 -0.208582,-1.766218 -0.307113,-2.598586 -0.01139,-0.458347 -0.02315,-0.925451 -0.03602,-1.430658 0.321568,0.0213 0.625161,0.04148 0.910098,0.06048 0.128638,-0.0026 0.25463,-0.0026 0.377976,0 0.06564,0.123346 0.128638,0.249338 0.188987,0.377976 0.01839,0.03673 0.03414,0.0761 0.04725,0.118118 0.0026,0.03673 0.0026,0.0761 0,0.118115 0.01053,0.107598 0.01839,0.217842 0.02363,0.330729 -0.0052,0.03673 -0.0131,0.0761 -0.02363,0.118118 0.0026,0.0446 0.0026,0.09185 0,0.141743 -0.0131,0.03673 -0.02885,0.0761 -0.04725,0.118118 -0.0052,0.0446 -0.0131,0.09185 -0.02363,0.14174 -0.23359,0.28871 -0.469826,0.580067 -0.708705,0.874069 -0.09972,0.0446 -0.202091,0.09185 -0.307107,0.141743 -0.02885,-0.0026 -0.06035,-0.0026 -0.09449,0 -0.0131,0.0052 -0.02885,0.0131 -0.04725,0.02363 -0.02098,-0.03414 -0.0446,-0.06564 -0.07087,-0.09449"
       transform="matrix(2.1373391,-1.0091081,1.0567588,2.0409635,-131.44212,2.8869929)"
       sodipodi:nodetypes="ccccccccccccccccccccccccccccc"
       inkscape:export-xdpi="96"
       inkscape:export-ydpi="96" />
    <path
       style="fill:none;stroke:#000000;stroke-width:0.26458332px;stroke-linecap:butt;stroke-linejoin:miter;stroke-opacity:1"
       d="m 61.341529,68.264089 c -0.213305,-0.134688 -0.430878,-0.272072 -0.595423,-0.303814 -0.164545,-0.03174 -0.274787,0.047 -0.413136,0.219767 -0.13835,0.172763 -0.303713,0.440495 -0.387352,0.586401 -0.08364,0.145907 -0.08364,0.169527 -0.08364,0.228587 0,0.05906 0,0.153554 0.0945,0.296618 0.09449,0.143064 0.283481,0.332051 0.390092,0.434624 0.10661,0.102572 0.130231,0.118321 0.149411,0.137499 0.01918,0.01918 0.03493,0.04281 0.07057,0.08248 0.03564,0.03968 0.09076,0.0948 0.12599,0.133863 0.03523,0.03907 0.05098,0.06269 0.07118,0.08289 0.0202,0.0202 0.04382,0.03594 0.059,0.05096 0.01518,0.01502 0.02306,0.03076 0.04301,0.05492 0.01995,0.02415 0.05145,0.05566 0.07087,0.08242 0.01942,0.02677 0.0273,0.05038 0.03937,0.07086 0.01208,0.02048 0.02783,0.03623 0.0513,0.161099 0.02348,0.124868 0.05497,0.361103 0.05953,0.518142 0.0046,0.15704 -0.01906,0.235784 -0.136404,0.393463 -0.117341,0.157679 -0.329953,0.393914 -0.455599,0.520657 -0.125647,0.126743 -0.165017,0.142492 -0.230578,0.142462 -0.06556,-3.1e-5 -0.157767,-0.01782 -0.283267,-0.104043 -0.125499,-0.08622 -0.265574,-0.225209 -0.419905,-0.378345"
       id="path1155"
       inkscape:connector-curvature="0"
       inkscape:path-effect="#path-effect1157"
       inkscape:original-d="m 61.341529,68.264089 c -0.21315,-0.134934 -0.430723,-0.272318 -0.652728,-0.412156 -0.107598,0.0761 -0.217839,0.154845 -0.330729,0.236236 -0.162719,0.265089 -0.328083,0.53282 -0.496094,0.803201 0.0026,0.02098 0.0026,0.0446 0,0.07087 0.0026,0.09185 0.0026,0.186344 0,0.283483 0.191635,0.186343 0.380622,0.37533 0.566965,0.566965 0.02627,0.0131 0.04989,0.02885 0.07087,0.04725 0.01839,0.02098 0.03415,0.0446 0.04725,0.07087 0.05777,0.05248 0.112888,0.107595 0.165365,0.165364 0.01839,0.02098 0.03414,0.0446 0.04725,0.07087 0.02627,0.0131 0.04989,0.02885 0.07087,0.04725 0.01053,0.0131 0.01839,0.02885 0.02363,0.04725 0.03414,0.02885 0.06564,0.06035 0.09449,0.09449 0.01053,0.02098 0.01839,0.0446 0.02363,0.07087 0.01839,0.0131 0.03414,0.02885 0.04725,0.04725 0.03414,0.23359 0.06564,0.469824 0.09449,0.708705 -0.02098,0.0761 -0.0446,0.154845 -0.07087,0.236236 -0.209968,0.233587 -0.422579,0.469823 -0.637836,0.708705 -0.03673,0.0131 -0.0761,0.02885 -0.118118,0.04725 -0.08852,-0.01727 -0.180727,-0.03506 -0.276618,-0.05338 C 59.85569,71.96749 59.715615,71.8285 59.561048,71.675602"
       transform="matrix(2.1373391,-1.0091081,1.0567588,2.0409635,-132.63905,3.7206757)"
       sodipodi:nodetypes="cccccccccccccccccccccc"
       inkscape:export-xdpi="96"
       inkscape:export-ydpi="96" />
  </g>
</svg>
